<?xml version="1.0" encoding="UTF-8" standalone="no"?>
<!-- Created with Inkscape (http://www.inkscape.org/) -->

<svg
   width="64"
   height="64"
   viewBox="0 0 16.933333 16.933333"
   version="1.1"
   id="svg1"
   xmlns="http://www.w3.org/2000/svg"
   xmlns:svg="http://www.w3.org/2000/svg">
  <defs
     id="defs1" />
  <g
     id="layer1">
    <path
       id="rect1"
       style="opacity:1;fill:#f9f9f9;stroke-width:1.07342;stroke-linecap:round;paint-order:stroke markers fill;fill-opacity:1"
       d="M 8.4666665,0 C 7.8803505,0 7.4083332,0.47201726 7.4083332,1.0583333 V 6.35 c 0,1.0583332 0,1.0583332 -1.0583333,1.0583332 l -5.2916666,0 C 0.47201726,7.4083332 0,7.8803505 0,8.4666665 0,9.0529825 0.47201726,9.5249998 1.0583333,9.5249998 h 5.2916666 c 1.0583333,0 1.0583333,0 1.0583333,1.0583332 V 15.875 c 0,0.586316 0.4720173,1.058333 1.0583333,1.058333 0.586316,0 1.0583333,-0.472017 1.0583333,-1.058333 v -5.291667 c 0,-1.0583332 0,-1.0583332 1.0583332,-1.0583332 H 15.875 c 0.586316,0 1.058333,-0.4720173 1.058333,-1.0583333 0,-0.586316 -0.472017,-1.0583333 -1.058333,-1.0583333 h -5.291667 c -1.0583332,0 -1.0583332,0 -1.0583332,-1.0583332 V 1.0583333 C 9.5249998,0.47201726 9.0529825,0 8.4666665,0 Z" />
  </g>
</svg>
